<svg viewBox="0 0 178 92" fill="none" xmlns="http://www.w3.org/2000/svg">
<g clip-path="url(#paint0_angular_473_55_clip_path)"><g transform="matrix(0 0.0448637 -0.0452475 2.22764e-10 130.934 46.0013)"><foreignObject x="-1208.58" y="-1208.58" width="2417.16" height="2417.16"><div xmlns="http://www.w3.org/1999/xhtml" style="background:conic-gradient(from 90deg,currentColor 0deg,currentColor 18deg,transparent 90deg,currentColor 180deg,currentColor 360deg);height:100%;width:100%;opacity:1"></div></foreignObject></g></g>
<path d="M98.9444 45.8064C107.733 30.7132 117.927 22.0119 131.221 22.0119V1.13796H130.111C101.791 1.4651 85.5471 26.8087 76.7578 41.8251L60.7955 69.2436L26.2466 10.8443H1.73975L47.9979 90.1414H73.1586C78.476 81.0397 83.7401 71.907 89.046 62.7987L98.9444 45.8064Z" fill="currentColor"/>
<defs>
<clipPath id="paint0_angular_473_55_clip_path"><path d="M98.9439 45.8062C107.733 30.713 117.927 22.0117 131.221 22.0117C144.233 22.0117 154.967 32.928 155.249 45.8062C155.249 59.3782 144.102 70.0194 131.221 70.0194C117.393 70.0194 106.835 59.2348 106.835 45.8062H98.9439L89.0722 62.7526C96.005 79.5243 112.158 90.865 131.221 90.865C157.678 90.865 176.26 69.3657 176.26 45.8062C176.26 21.5748 155.499 1.1377 131.221 1.1377C105.356 1.1377 88.6489 21.5083 76.7573 41.8248L98.9439 45.8062Z"/></clipPath></defs>
</svg>
